<?xml version="1.0" standalone="no"?>
<!DOCTYPE svg PUBLIC "-//W3C//DTD SVG 20010904//EN"
 "http://www.w3.org/TR/2001/REC-SVG-20010904/DTD/svg10.dtd">
<svg version="1.0" xmlns="http://www.w3.org/2000/svg"
 width="842.000000pt" height="842.000000pt" viewBox="0 0 842.000000 842.000000"
 preserveAspectRatio="xMidYMid meet">
<metadata>
Created by potrace 1.11, written by Peter Selinger 2001-2013
</metadata>
<g transform="translate(0.000000,842.000000) scale(0.100000,-0.100000)"
fill="#000000" stroke="none">
<path d="M2253 6913 c-4 -10 2 -23 15 -34 12 -9 22 -21 22 -25 0 -4 19 -28 43
-53 23 -25 67 -75 97 -110 30 -36 66 -77 80 -92 14 -15 41 -46 59 -69 19 -24
42 -50 50 -58 14 -14 16 -177 18 -1539 1 -838 4 -1530 6 -1538 5 -12 140 -105
153 -105 3 0 10 -5 17 -11 7 -5 73 -49 148 -97 144 -92 142 -91 210 -136 210
-138 270 -176 279 -176 5 0 10 -4 10 -8 0 -5 18 -19 41 -33 22 -13 48 -28 57
-34 10 -5 76 -49 147 -96 167 -110 306 -201 326 -214 9 -5 49 -31 88 -57 39
-27 76 -48 80 -48 5 0 11 -3 13 -7 2 -5 22 -20 45 -35 43 -28 83 -37 83 -18 0
6 4 10 9 10 5 0 104 64 220 143 116 78 233 156 261 173 27 17 47 34 43 38 -3
3 -1 6 6 6 10 0 177 105 191 120 5 6 706 472 805 535 33 21 62 40 65 42 2 2 4
691 5 1531 l0 1528 35 44 c19 25 45 56 57 70 12 14 62 75 113 135 50 61 109
130 130 155 22 25 40 53 40 63 0 16 -103 17 -2030 17 -1881 0 -2031 -1 -2037
-17z"/>
<path d="M6758 3119 c-10 -5 -18 -17 -18 -24 0 -8 -4 -15 -8 -15 -5 0 -31 -21
-58 -47 -250 -237 -481 -393 -784 -525 -119 -53 -341 -123 -427 -135 -36 -6
-67 -33 -45 -40 6 -3 12 -11 12 -18 0 -8 6 -18 13 -22 6 -5 25 -22 40 -39 l28
-31 -98 -26 c-131 -35 -407 -87 -553 -103 -25 -2 -56 -7 -70 -9 -266 -47 -574
-52 -855 -16 -44 6 -102 13 -129 17 -27 3 -57 8 -68 10 -44 10 -56 12 -113 20
-33 4 -62 8 -65 9 -3 1 -30 5 -60 9 -30 4 -83 14 -118 22 -34 7 -74 16 -90 19
-39 7 -164 43 -170 50 -3 3 2 13 11 23 10 10 14 22 10 26 -5 4 -3 6 4 4 6 -2
23 13 37 32 34 45 27 50 -99 80 -426 98 -851 345 -1196 693 -60 60 -74 47 -51
-48 7 -33 16 -67 19 -75 3 -8 7 -24 8 -36 2 -11 9 -40 15 -65 7 -24 13 -51 15
-59 2 -8 15 -61 29 -117 14 -56 26 -106 26 -112 0 -7 -61 -11 -173 -13 -142
-3 -172 -6 -172 -17 0 -8 32 -39 70 -68 39 -30 77 -59 85 -66 8 -7 31 -23 50
-37 19 -13 40 -29 46 -35 6 -5 21 -17 34 -25 12 -8 45 -33 73 -54 62 -46 284
-192 344 -226 35 -19 42 -27 37 -45 -15 -60 234 -194 582 -311 89 -30 170 -56
180 -58 11 -3 53 -13 94 -24 41 -11 100 -25 130 -31 30 -6 66 -14 80 -16 45
-10 289 -45 297 -44 4 1 10 0 13 -1 3 -1 19 -3 35 -5 17 -1 66 -5 110 -9 44
-4 109 -9 145 -12 36 -2 90 -7 120 -10 84 -8 395 -2 505 10 22 2 76 7 120 11
44 3 127 13 185 21 58 8 121 17 140 20 77 10 350 68 450 96 269 74 572 204
688 294 56 43 67 60 52 79 -7 8 -3 15 16 24 28 12 275 170 284 181 3 3 18 14
35 24 16 11 34 23 40 28 5 5 35 26 65 48 30 22 62 45 70 52 8 7 41 33 74 57
65 47 65 47 116 91 19 16 38 30 43 30 12 0 8 38 -5 46 -7 5 -83 8 -168 9 -94
0 -154 4 -154 10 2 15 34 166 44 210 5 22 23 98 40 168 37 149 34 173 -12 146z"/>
</g>
</svg>
